<?xml version="1.0" encoding="UTF-8" standalone="no"?>
<!DOCTYPE svg PUBLIC "-//W3C//DTD SVG 1.1//EN"
 "http://www.w3.org/Graphics/SVG/1.1/DTD/svg11.dtd">
<!-- Generated by graphviz version 14.0.2 (20251019.1705)
 -->
<!-- Title: pipeline Pages: 1 -->
<svg width="615pt" height="260pt"
 viewBox="0.00 0.00 615.00 260.00" xmlns="http://www.w3.org/2000/svg" xmlns:xlink="http://www.w3.org/1999/xlink">
<g id="graph0" class="graph" transform="scale(1 1) rotate(0) translate(4 256)">
<title>pipeline</title>
<polygon fill="white" stroke="none" points="-4,4 -4,-256 611,-256 611,4 -4,4"/>
<!-- combined_crashes -->
<g id="node1" class="node">
<title>combined_crashes</title>
<g id="a_node1"><a xlink:title="Combine 23 years of crash data (2001&#45;2023), generate PK mapping table&#10;&#10;Deps:&#10; &#160;• njdot/data/2023/NewJersey2023Accidents.pqt&#10;&#10;Outs:&#10; &#160;• njdot/data/crashes.parquet&#10; &#160;• njdot/data/crash_pk_mappings.parquet">
<path fill="none" stroke="black" d="M278,-144C278,-144 185.5,-144 185.5,-144 179.5,-144 173.5,-138 173.5,-132 173.5,-132 173.5,-120 173.5,-120 173.5,-114 179.5,-108 185.5,-108 185.5,-108 278,-108 278,-108 284,-108 290,-114 290,-120 290,-120 290,-132 290,-132 290,-138 284,-144 278,-144"/>
<text xml:space="preserve" text-anchor="middle" x="231.75" y="-120.95" font-family="Times,serif" font-size="14.00">combined_crashes</text>
</a>
</g>
</g>
<!-- combined_drivers -->
<g id="node2" class="node">
<title>combined_drivers</title>
<g id="a_node2"><a xlink:title="Combine driver records across all years, apply PK mapping fixes&#10;&#10;Deps:&#10; &#160;• njdot/data/2023/NewJersey2023Drivers.pqt&#10; &#160;• njdot/data/crash_pk_mappings.parquet&#10;&#10;Outs:&#10; &#160;• njdot/data/drivers.parquet">
<path fill="none" stroke="black" d="M450.38,-252C450.38,-252 360.12,-252 360.12,-252 354.12,-252 348.12,-246 348.12,-240 348.12,-240 348.12,-228 348.12,-228 348.12,-222 354.12,-216 360.12,-216 360.12,-216 450.38,-216 450.38,-216 456.38,-216 462.38,-222 462.38,-228 462.38,-228 462.38,-240 462.38,-240 462.38,-246 456.38,-252 450.38,-252"/>
<text xml:space="preserve" text-anchor="middle" x="405.25" y="-228.95" font-family="Times,serif" font-size="14.00">combined_drivers</text>
</a>
</g>
</g>
<!-- combined_crashes&#45;&gt;combined_drivers -->
<g id="edge2" class="edge">
<title>combined_crashes&#45;&gt;combined_drivers</title>
<path fill="none" stroke="black" d="M287.65,-144.42C292.21,-146.96 296.57,-149.81 300.5,-153 322.91,-171.16 314.09,-188.84 336.5,-207 337.61,-207.9 338.75,-208.77 339.92,-209.61"/>
<polygon fill="black" stroke="black" points="337.75,-212.38 348.07,-214.77 341.49,-206.47 337.75,-212.38"/>
</g>
<!-- combined_occupants -->
<g id="node3" class="node">
<title>combined_occupants</title>
<g id="a_node3"><a xlink:title="Combine occupant records across all years, apply PK mapping fixes&#10;&#10;Deps:&#10; &#160;• njdot/data/2023/NewJersey2023Occupants.pqt&#10; &#160;• njdot/data/crash_pk_mappings.parquet&#10;&#10;Outs:&#10; &#160;• njdot/data/occupants.parquet">
<path fill="none" stroke="black" d="M458.62,-198C458.62,-198 351.88,-198 351.88,-198 345.88,-198 339.88,-192 339.88,-186 339.88,-186 339.88,-174 339.88,-174 339.88,-168 345.88,-162 351.88,-162 351.88,-162 458.62,-162 458.62,-162 464.62,-162 470.62,-168 470.62,-174 470.62,-174 470.62,-186 470.62,-186 470.62,-192 464.62,-198 458.62,-198"/>
<text xml:space="preserve" text-anchor="middle" x="405.25" y="-174.95" font-family="Times,serif" font-size="14.00">combined_occupants</text>
</a>
</g>
</g>
<!-- combined_crashes&#45;&gt;combined_occupants -->
<g id="edge4" class="edge">
<title>combined_crashes&#45;&gt;combined_occupants</title>
<path fill="none" stroke="black" d="M290.33,-144.13C304.66,-148.64 320.17,-153.53 335,-158.2"/>
<polygon fill="black" stroke="black" points="333.62,-161.43 344.2,-161.09 335.72,-154.75 333.62,-161.43"/>
</g>
<!-- combined_pedestrians -->
<g id="node4" class="node">
<title>combined_pedestrians</title>
<g id="a_node4"><a xlink:title="Combine pedestrian records across all years, apply PK mapping fixes&#10;&#10;Deps:&#10; &#160;• njdot/data/2023/NewJersey2023Pedestrians.pqt&#10; &#160;• njdot/data/crash_pk_mappings.parquet&#10;&#10;Outs:&#10; &#160;• njdot/data/pedestrians.parquet">
<path fill="none" stroke="black" d="M462,-90C462,-90 348.5,-90 348.5,-90 342.5,-90 336.5,-84 336.5,-78 336.5,-78 336.5,-66 336.5,-66 336.5,-60 342.5,-54 348.5,-54 348.5,-54 462,-54 462,-54 468,-54 474,-60 474,-66 474,-66 474,-78 474,-78 474,-84 468,-90 462,-90"/>
<text xml:space="preserve" text-anchor="middle" x="405.25" y="-66.95" font-family="Times,serif" font-size="14.00">combined_pedestrians</text>
</a>
</g>
</g>
<!-- combined_crashes&#45;&gt;combined_pedestrians -->
<g id="edge6" class="edge">
<title>combined_crashes&#45;&gt;combined_pedestrians</title>
<path fill="none" stroke="black" d="M290.33,-107.87C304.66,-103.36 320.17,-98.47 335,-93.8"/>
<polygon fill="black" stroke="black" points="335.72,-97.25 344.2,-90.91 333.62,-90.57 335.72,-97.25"/>
</g>
<!-- combined_vehicles -->
<g id="node5" class="node">
<title>combined_vehicles</title>
<g id="a_node5"><a xlink:title="Combine vehicle records across all years, apply PK mapping fixes&#10;&#10;Deps:&#10; &#160;• njdot/data/2023/NewJersey2023Vehicles.pqt&#10; &#160;• njdot/data/crash_pk_mappings.parquet&#10;&#10;Outs:&#10; &#160;• njdot/data/vehicles.parquet">
<path fill="none" stroke="black" d="M453.75,-36C453.75,-36 356.75,-36 356.75,-36 350.75,-36 344.75,-30 344.75,-24 344.75,-24 344.75,-12 344.75,-12 344.75,-6 350.75,0 356.75,0 356.75,0 453.75,0 453.75,0 459.75,0 465.75,-6 465.75,-12 465.75,-12 465.75,-24 465.75,-24 465.75,-30 459.75,-36 453.75,-36"/>
<text xml:space="preserve" text-anchor="middle" x="405.25" y="-12.95" font-family="Times,serif" font-size="14.00">combined_vehicles</text>
</a>
</g>
</g>
<!-- combined_crashes&#45;&gt;combined_vehicles -->
<g id="edge8" class="edge">
<title>combined_crashes&#45;&gt;combined_vehicles</title>
<path fill="none" stroke="black" d="M287.65,-107.58C292.21,-105.04 296.57,-102.19 300.5,-99 322.91,-80.84 314.09,-63.16 336.5,-45 337.61,-44.1 338.75,-43.23 339.92,-42.39"/>
<polygon fill="black" stroke="black" points="341.49,-45.53 348.07,-37.23 337.75,-39.62 341.49,-45.53"/>
</g>
<!-- db_crashes -->
<g id="node6" class="node">
<title>db_crashes</title>
<g id="a_node6"><a xlink:title="Convert crashes parquet → SQLite database (6.6M rows, 2.6GB)&#10;&#10;Deps:&#10; &#160;• njdot/data/crashes.parquet&#10;&#10;Outs:&#10; &#160;• www/public/njdot/crashes.db">
<path fill="none" stroke="black" d="M431.25,-144C431.25,-144 379.25,-144 379.25,-144 373.25,-144 367.25,-138 367.25,-132 367.25,-132 367.25,-120 367.25,-120 367.25,-114 373.25,-108 379.25,-108 379.25,-108 431.25,-108 431.25,-108 437.25,-108 443.25,-114 443.25,-120 443.25,-120 443.25,-132 443.25,-132 443.25,-138 437.25,-144 431.25,-144"/>
<text xml:space="preserve" text-anchor="middle" x="405.25" y="-120.95" font-family="Times,serif" font-size="14.00">db_crashes</text>
</a>
</g>
</g>
<!-- combined_crashes&#45;&gt;db_crashes -->
<g id="edge10" class="edge">
<title>combined_crashes&#45;&gt;db_crashes</title>
<path fill="none" stroke="black" d="M290.33,-126C311.4,-126 335.02,-126 355.27,-126"/>
<polygon fill="black" stroke="black" points="355.24,-129.5 365.24,-126 355.24,-122.5 355.24,-129.5"/>
</g>
<!-- db_drivers -->
<g id="node7" class="node">
<title>db_drivers</title>
<g id="a_node7"><a xlink:title="Convert drivers parquet → SQLite database (10.7M rows, 1.1GB)&#10;&#10;Deps:&#10; &#160;• njdot/data/drivers.parquet&#10;&#10;Outs:&#10; &#160;• www/public/njdot/drivers.db">
<path fill="none" stroke="black" d="M583.38,-252C583.38,-252 533.62,-252 533.62,-252 527.62,-252 521.62,-246 521.62,-240 521.62,-240 521.62,-228 521.62,-228 521.62,-222 527.62,-216 533.62,-216 533.62,-216 583.38,-216 583.38,-216 589.38,-216 595.38,-222 595.38,-228 595.38,-228 595.38,-240 595.38,-240 595.38,-246 589.38,-252 583.38,-252"/>
<text xml:space="preserve" text-anchor="middle" x="558.5" y="-228.95" font-family="Times,serif" font-size="14.00">db_drivers</text>
</a>
</g>
</g>
<!-- combined_drivers&#45;&gt;db_drivers -->
<g id="edge11" class="edge">
<title>combined_drivers&#45;&gt;db_drivers</title>
<path fill="none" stroke="black" d="M462.57,-234C478.23,-234 495.08,-234 510.17,-234"/>
<polygon fill="black" stroke="black" points="509.8,-237.5 519.8,-234 509.8,-230.5 509.8,-237.5"/>
</g>
<!-- db_occupants -->
<g id="node8" class="node">
<title>db_occupants</title>
<g id="a_node8"><a xlink:title="Convert occupants parquet → SQLite database (13.1M rows, 957MB)&#10;&#10;Deps:&#10; &#160;• njdot/data/occupants.parquet&#10;&#10;Outs:&#10; &#160;• www/public/njdot/occupants.db">
<path fill="none" stroke="black" d="M591.62,-198C591.62,-198 525.38,-198 525.38,-198 519.38,-198 513.38,-192 513.38,-186 513.38,-186 513.38,-174 513.38,-174 513.38,-168 519.38,-162 525.38,-162 525.38,-162 591.62,-162 591.62,-162 597.62,-162 603.62,-168 603.62,-174 603.62,-174 603.62,-186 603.62,-186 603.62,-192 597.62,-198 591.62,-198"/>
<text xml:space="preserve" text-anchor="middle" x="558.5" y="-174.95" font-family="Times,serif" font-size="14.00">db_occupants</text>
</a>
</g>
</g>
<!-- combined_occupants&#45;&gt;db_occupants -->
<g id="edge12" class="edge">
<title>combined_occupants&#45;&gt;db_occupants</title>
<path fill="none" stroke="black" d="M470.83,-180C481.22,-180 491.88,-180 502.03,-180"/>
<polygon fill="black" stroke="black" points="501.71,-183.5 511.71,-180 501.71,-176.5 501.71,-183.5"/>
</g>
<!-- db_pedestrians -->
<g id="node9" class="node">
<title>db_pedestrians</title>
<g id="a_node9"><a xlink:title="Convert pedestrians parquet → SQLite database (130K rows, 20MB)&#10;&#10;Deps:&#10; &#160;• njdot/data/pedestrians.parquet&#10;&#10;Outs:&#10; &#160;• www/public/njdot/pedestrians.db">
<path fill="none" stroke="black" d="M595,-90C595,-90 522,-90 522,-90 516,-90 510,-84 510,-78 510,-78 510,-66 510,-66 510,-60 516,-54 522,-54 522,-54 595,-54 595,-54 601,-54 607,-60 607,-66 607,-66 607,-78 607,-78 607,-84 601,-90 595,-90"/>
<text xml:space="preserve" text-anchor="middle" x="558.5" y="-66.95" font-family="Times,serif" font-size="14.00">db_pedestrians</text>
</a>
</g>
</g>
<!-- combined_pedestrians&#45;&gt;db_pedestrians -->
<g id="edge13" class="edge">
<title>combined_pedestrians&#45;&gt;db_pedestrians</title>
<path fill="none" stroke="black" d="M474.35,-72C482.36,-72 490.48,-72 498.35,-72"/>
<polygon fill="black" stroke="black" points="498.15,-75.5 508.15,-72 498.15,-68.5 498.15,-75.5"/>
</g>
<!-- db_vehicles -->
<g id="node10" class="node">
<title>db_vehicles</title>
<g id="a_node10"><a xlink:title="Convert vehicles parquet → SQLite database (11.8M rows, 1.2GB)&#10;&#10;Deps:&#10; &#160;• njdot/data/vehicles.parquet&#10;&#10;Outs:&#10; &#160;• www/public/njdot/vehicles.db">
<path fill="none" stroke="black" d="M586.75,-36C586.75,-36 530.25,-36 530.25,-36 524.25,-36 518.25,-30 518.25,-24 518.25,-24 518.25,-12 518.25,-12 518.25,-6 524.25,0 530.25,0 530.25,0 586.75,0 586.75,0 592.75,0 598.75,-6 598.75,-12 598.75,-12 598.75,-24 598.75,-24 598.75,-30 592.75,-36 586.75,-36"/>
<text xml:space="preserve" text-anchor="middle" x="558.5" y="-12.95" font-family="Times,serif" font-size="14.00">db_vehicles</text>
</a>
</g>
</g>
<!-- combined_vehicles&#45;&gt;db_vehicles -->
<g id="edge14" class="edge">
<title>combined_vehicles&#45;&gt;db_vehicles</title>
<path fill="none" stroke="black" d="M466.03,-18C479.57,-18 493.82,-18 506.93,-18"/>
<polygon fill="black" stroke="black" points="506.61,-21.5 516.61,-18 506.61,-14.5 506.61,-21.5"/>
</g>
<!-- raw_2023_accidents -->
<g id="node11" class="node">
<title>raw_2023_accidents</title>
<g id="a_node11"><a xlink:title="Parse 2023 crash records from raw ZIP, apply geocoding fixes&#10;&#10;Deps:&#10; &#160;• njdot/data/2023/NewJersey2023Accidents.zip&#10;&#10;Outs:&#10; &#160;• njdot/data/2023/NewJersey2023Accidents.pqt">
<path fill="none" stroke="black" d="M115,-144C115,-144 12,-144 12,-144 6,-144 0,-138 0,-132 0,-132 0,-120 0,-120 0,-114 6,-108 12,-108 12,-108 115,-108 115,-108 121,-108 127,-114 127,-120 127,-120 127,-132 127,-132 127,-138 121,-144 115,-144"/>
<text xml:space="preserve" text-anchor="middle" x="63.5" y="-120.95" font-family="Times,serif" font-size="14.00">raw_2023_accidents</text>
</a>
</g>
</g>
<!-- raw_2023_accidents&#45;&gt;combined_crashes -->
<g id="edge1" class="edge">
<title>raw_2023_accidents&#45;&gt;combined_crashes</title>
<path fill="none" stroke="black" d="M127.35,-126C138.59,-126 150.36,-126 161.76,-126"/>
<polygon fill="black" stroke="black" points="161.5,-129.5 171.5,-126 161.5,-122.5 161.5,-129.5"/>
</g>
<!-- raw_2023_drivers -->
<g id="node12" class="node">
<title>raw_2023_drivers</title>
<g id="a_node12"><a xlink:title="Parse 2023 driver records from raw ZIP&#10;&#10;Deps:&#10; &#160;• njdot/data/2023/NewJersey2023Drivers.zip&#10;&#10;Outs:&#10; &#160;• njdot/data/2023/NewJersey2023Drivers.pqt">
<path fill="none" stroke="black" d="M276.88,-252C276.88,-252 186.62,-252 186.62,-252 180.62,-252 174.62,-246 174.62,-240 174.62,-240 174.62,-228 174.62,-228 174.62,-222 180.62,-216 186.62,-216 186.62,-216 276.88,-216 276.88,-216 282.88,-216 288.88,-222 288.88,-228 288.88,-228 288.88,-240 288.88,-240 288.88,-246 282.88,-252 276.88,-252"/>
<text xml:space="preserve" text-anchor="middle" x="231.75" y="-228.95" font-family="Times,serif" font-size="14.00">raw_2023_drivers</text>
</a>
</g>
</g>
<!-- raw_2023_drivers&#45;&gt;combined_drivers -->
<g id="edge3" class="edge">
<title>raw_2023_drivers&#45;&gt;combined_drivers</title>
<path fill="none" stroke="black" d="M288.91,-234C304.08,-234 320.66,-234 336.4,-234"/>
<polygon fill="black" stroke="black" points="336.16,-237.5 346.16,-234 336.16,-230.5 336.16,-237.5"/>
</g>
<!-- raw_2023_occupants -->
<g id="node13" class="node">
<title>raw_2023_occupants</title>
<g id="a_node13"><a xlink:title="Parse 2023 occupant records from raw ZIP&#10;&#10;Deps:&#10; &#160;• njdot/data/2023/NewJersey2023Occupants.zip&#10;&#10;Outs:&#10; &#160;• njdot/data/2023/NewJersey2023Occupants.pqt">
<path fill="none" stroke="black" d="M285.12,-198C285.12,-198 178.38,-198 178.38,-198 172.38,-198 166.38,-192 166.38,-186 166.38,-186 166.38,-174 166.38,-174 166.38,-168 172.38,-162 178.38,-162 178.38,-162 285.12,-162 285.12,-162 291.12,-162 297.12,-168 297.12,-174 297.12,-174 297.12,-186 297.12,-186 297.12,-192 291.12,-198 285.12,-198"/>
<text xml:space="preserve" text-anchor="middle" x="231.75" y="-174.95" font-family="Times,serif" font-size="14.00">raw_2023_occupants</text>
</a>
</g>
</g>
<!-- raw_2023_occupants&#45;&gt;combined_occupants -->
<g id="edge5" class="edge">
<title>raw_2023_occupants&#45;&gt;combined_occupants</title>
<path fill="none" stroke="black" d="M297.59,-180C307.58,-180 317.98,-180 328.19,-180"/>
<polygon fill="black" stroke="black" points="328.09,-183.5 338.09,-180 328.09,-176.5 328.09,-183.5"/>
</g>
<!-- raw_2023_pedestrians -->
<g id="node14" class="node">
<title>raw_2023_pedestrians</title>
<g id="a_node14"><a xlink:title="Parse 2023 pedestrian records from raw ZIP&#10;&#10;Deps:&#10; &#160;• njdot/data/2023/NewJersey2023Pedestrians.zip&#10;&#10;Outs:&#10; &#160;• njdot/data/2023/NewJersey2023Pedestrians.pqt">
<path fill="none" stroke="black" d="M288.5,-90C288.5,-90 175,-90 175,-90 169,-90 163,-84 163,-78 163,-78 163,-66 163,-66 163,-60 169,-54 175,-54 175,-54 288.5,-54 288.5,-54 294.5,-54 300.5,-60 300.5,-66 300.5,-66 300.5,-78 300.5,-78 300.5,-84 294.5,-90 288.5,-90"/>
<text xml:space="preserve" text-anchor="middle" x="231.75" y="-66.95" font-family="Times,serif" font-size="14.00">raw_2023_pedestrians</text>
</a>
</g>
</g>
<!-- raw_2023_pedestrians&#45;&gt;combined_pedestrians -->
<g id="edge7" class="edge">
<title>raw_2023_pedestrians&#45;&gt;combined_pedestrians</title>
<path fill="none" stroke="black" d="M300.53,-72C308.49,-72 316.66,-72 324.75,-72"/>
<polygon fill="black" stroke="black" points="324.6,-75.5 334.6,-72 324.6,-68.5 324.6,-75.5"/>
</g>
<!-- raw_2023_vehicles -->
<g id="node15" class="node">
<title>raw_2023_vehicles</title>
<g id="a_node15"><a xlink:title="Parse 2023 vehicle records from raw ZIP&#10;&#10;Deps:&#10; &#160;• njdot/data/2023/NewJersey2023Vehicles.zip&#10;&#10;Outs:&#10; &#160;• njdot/data/2023/NewJersey2023Vehicles.pqt">
<path fill="none" stroke="black" d="M280.25,-36C280.25,-36 183.25,-36 183.25,-36 177.25,-36 171.25,-30 171.25,-24 171.25,-24 171.25,-12 171.25,-12 171.25,-6 177.25,0 183.25,0 183.25,0 280.25,0 280.25,0 286.25,0 292.25,-6 292.25,-12 292.25,-12 292.25,-24 292.25,-24 292.25,-30 286.25,-36 280.25,-36"/>
<text xml:space="preserve" text-anchor="middle" x="231.75" y="-12.95" font-family="Times,serif" font-size="14.00">raw_2023_vehicles</text>
</a>
</g>
</g>
<!-- raw_2023_vehicles&#45;&gt;combined_vehicles -->
<g id="edge9" class="edge">
<title>raw_2023_vehicles&#45;&gt;combined_vehicles</title>
<path fill="none" stroke="black" d="M292.73,-18C305.79,-18 319.72,-18 333.16,-18"/>
<polygon fill="black" stroke="black" points="332.79,-21.5 342.79,-18 332.79,-14.5 332.79,-21.5"/>
</g>
</g>
</svg>
